# xmcd
#
# Track frame offsets: 
#        150
#        14037
#        24254
#        38883
#        52567
#        56742
#        71905
#        86162
#        98187
#        112745
#        136474
#
# Disc length: 2069 seconds
#
# Revision: 2
# Processed by: cddbd v1.5.2PL0 Copyright (c) Steve Scherf et al.
# Submitted via: ExactAudioCopyFreeDBPlugin 1.0
#
DISCID=8e08130b
DTITLE=Czesław Śpiewa - POP
DYEAR=2010
DGENRE=Alternative Pop
TTITLE0=Piosenka Dla Pajączka
TTITLE1=Kiedy Tatuś Sypiał z Mamą
TTITLE2=W Sam Raz
TTITLE3=Krucha Blondynka
TTITLE4=Pozdziękowanie
TTITLE5=Frozen Margarita (with Gin)
TTITLE6=Caesia and Ruben
TTITLE7=O Tych W Krakowie
TTITLE8=Dziewczyna Z Branży
TTITLE9=Caravan
TTITLE10=Pożegnanie Małego Wojownika
EXTD=
EXTT0=
EXTT1=
EXTT2=
EXTT3=
EXTT4=
EXTT5=
EXTT6=
EXTT7=
EXTT8=
EXTT9=
EXTT10=
PLAYORDER=
